Coordinates
version=1
nRows=8
nColumns=63
inDegrees=yes

Units are S.I. units (second, meters, Newtons, ...)
If the header above contains a line with 'inDegrees', this indicates whether rotational values are in degrees (yes) or radians (no).

endheader
time	pelvis_tilt	pelvis_list	pelvis_rotation	pelvis_tx	pelvis_ty	pelvis_tz	hip_flexion_r	hip_adduction_r	hip_rotation_r	knee_angle_r	knee_angle_r_beta	ankle_angle_r	subtalar_angle_r	mtp_angle_r	hip_flexion_l	hip_adduction_l	hip_rotation_l	knee_angle_l	knee_angle_l_beta	ankle_angle_l	subtalar_angle_l	mtp_angle_l	L5_S1_Flex_Ext	L5_S1_Lat_Bending	L5_S1_axial_rotation	L4_L5_Flex_Ext	L4_L5_Lat_Bending	L4_L5_axial_rotation	L3_L4_Flex_Ext	L3_L4_Lat_Bending	L3_L4_axial_rotation	L2_L3_Flex_Ext	L2_L3_Lat_Bending	L2_L3_axial_rotation	L1_L2_Flex_Ext	L1_L2_Lat_Bending	L1_L2_axial_rotation	L1_T12_Flex_Ext	L1_T12_Lat_Bending	L1_T12_axial_rotation	Abs_r3	Abs_r2	Abs_r1	Abs_t1	Abs_t2	neck_flexion	neck_bending	neck_rotation	arm_flex_r	arm_add_r	arm_rot_r	elbow_flex_r	pro_sup_r	wrist_flex_r	wrist_dev_r	arm_flex_l	arm_add_l	arm_rot_l	elbow_flex_l	pro_sup_l	wrist_flex_l	wrist_dev_l
4.666667	0.642369	1.078962	88.865721	0.169412	0.862663	0.725175	-0.988276	0.271637	-13.911353	15.459927	0.269827	26.840424	17.688575	0.000000	-2.749691	-2.020359	1.980765	13.107908	0.228776	21.806322	-10.949932	0.000000	-0.337309	0.098196	1.287623	-0.626417	0.130601	1.368099	-0.554165	0.238754	1.368099	-0.385510	0.238754	1.126670	-0.313225	0.200242	1.046193	-0.192738	0.152106	0.965717	-2.409364	1.110816	7.161371	0.000000	0.000000	6.754467	-1.220999	2.219509	-4.079911	-15.868749	-5.570747	85.626951	81.944867	-5.460653	18.836308	29.379068	-8.124879	14.181143	80.647498	88.671286	-9.093287	9.303038
4.683333	0.710380	0.998638	88.749824	0.170055	0.861657	0.723954	-0.971473	0.363115	-14.005658	15.580146	0.271925	26.941022	17.684417	0.000000	-2.669320	-2.119051	1.932156	13.279260	0.231767	22.025155	-11.013633	0.000000	-0.343409	0.137220	1.142739	-0.637745	0.182503	1.214160	-0.564187	0.333637	1.214160	-0.392482	0.333637	0.999896	-0.318890	0.279819	0.928475	-0.196224	0.212554	0.857054	-2.452936	1.552262	6.355570	0.000000	0.000000	6.286662	-1.536533	2.986955	-6.274035	-15.239666	-2.888282	81.000075	84.269856	-5.072186	18.719742	25.495488	-8.696279	11.962310	82.848930	88.502942	-8.510926	10.316057
4.700000	0.773818	0.879099	88.686982	0.170643	0.860584	0.722666	-0.936743	0.452508	-14.162242	15.684646	0.273749	27.036382	17.680454	0.000000	-2.548227	-2.212895	1.932198	13.433597	0.234460	22.287767	-11.075178	0.000000	-0.344025	0.174504	1.000732	-0.638889	0.232090	1.063278	-0.565199	0.424289	1.063278	-0.393186	0.424289	0.875640	-0.319462	0.355848	0.813095	-0.196576	0.270307	0.750549	-2.457337	1.974024	5.565771	0.000000	0.000000	5.733608	-1.723791	3.573671	-8.093884	-14.783177	-0.236801	76.287532	86.300303	-4.931192	17.997733	21.723963	-9.022476	9.854698	84.650680	88.337573	-8.075744	11.307225
4.716667	0.814660	0.723340	88.643421	0.171197	0.859466	0.721343	-0.878486	0.518202	-14.330373	15.778773	0.275392	27.140125	17.676979	0.000000	-2.408512	-2.284268	1.935716	13.540407	0.236325	22.565746	-11.094275	0.000000	-0.340877	0.207453	0.868414	-0.633043	0.275913	0.922690	-0.560027	0.504401	0.922690	-0.389588	0.504401	0.759862	-0.316538	0.423038	0.705586	-0.194777	0.321345	0.651311	-2.434850	2.346750	4.829859	0.000000	0.000000	5.152594	-1.820741	3.967505	-9.632726	-14.502558	2.189228	71.783103	87.859505	-5.104308	16.602175	18.146783	-9.110721	7.922824	86.031275	88.187911	-7.758004	12.210820
4.733333	0.842027	0.529638	88.656174	0.171667	0.858348	0.720023	-0.793278	0.571659	-14.531137	15.857668	0.276769	27.241866	17.656524	0.000000	-2.241086	-2.345828	1.935939	13.599066	0.237348	22.848571	-11.023277	0.000000	-0.333143	0.237464	0.740698	-0.618679	0.315827	0.786992	-0.547320	0.577370	0.786992	-0.380749	0.577370	0.648111	-0.309356	0.484236	0.601817	-0.190358	0.367832	0.555524	-2.379604	2.686239	4.119541	0.000000	0.000000	4.551341	-1.799495	4.298574	-11.006712	-14.354790	4.224452	67.761177	88.930709	-5.761113	14.494892	14.827197	-9.001343	6.249881	86.970943	88.061104	-7.591388	12.960130
4.750000	0.859288	0.311433	88.747954	0.172012	0.857289	0.718731	-0.699822	0.618254	-14.785014	15.900672	0.277519	27.341724	17.636391	0.000000	-2.061483	-2.396633	2.001286	13.598764	0.237343	23.104884	-10.929933	0.000000	-0.322162	0.265223	0.608545	-0.598287	0.352747	0.646579	-0.529280	0.644864	0.646579	-0.368199	0.644864	0.532477	-0.299159	0.540844	0.494443	-0.184083	0.410831	0.456409	-2.301170	3.000261	3.384546	0.000000	0.000000	3.965796	-1.685479	4.622669	-12.284820	-14.263794	5.728379	64.439463	89.517278	-6.582828	11.838279	11.776080	-8.760722	4.861520	87.519197	87.968019	-7.631450	13.520726
4.766667	0.853842	0.062864	88.921455	0.172230	0.856340	0.717475	-0.582795	0.644763	-15.075928	15.911281	0.277704	27.454064	17.618203	0.000000	-1.863968	-2.425886	2.106182	13.535625	0.236241	23.328086	-10.772962	0.000000	-0.306305	0.288520	0.473829	-0.568838	0.383732	0.503443	-0.503228	0.701508	0.503443	-0.350076	0.701508	0.414600	-0.284434	0.588351	0.384986	-0.175022	0.446918	0.355372	-2.187903	3.263800	2.635295	0.000000	0.000000	3.406233	-1.411324	4.972713	-13.553956	-14.185631	6.694271	62.024936	89.621601	-7.706999	8.822851	9.024212	-8.459852	3.813661	87.701130	87.913516	-7.897923	13.841202
4.783333	0.829008	-0.217098	89.173599	0.172346	0.855539	0.716273	-0.442800	0.659137	-15.383327	15.868613	0.276960	27.573087	17.605701	0.000000	-1.655362	-2.437662	2.249799	13.390093	0.233701	23.514271	-10.554243	0.000000	-0.285894	0.307484	0.335771	-0.530934	0.408954	0.356757	-0.469696	0.747618	0.356757	-0.326748	0.747618	0.293800	-0.265481	0.627022	0.272814	-0.163360	0.476293	0.251828	-2.042113	3.478326	1.867458	0.000000	0.000000	2.922820	-1.019864	5.356297	-14.859382	-14.098515	7.158834	60.649833	89.331050	-8.949940	5.668025	6.598144	-8.187834	3.133424	87.591119	87.900792	-8.341345	13.959138
